<svg xmlns="http://www.w3.org/2000/svg" viewBox="0 0 900 700"><defs><radialGradient id="b"><stop stop-color="#f9f6f0"/><stop offset="1" stop-color="#d9d9dd"/></radialGradient><linearGradient id="s" x1="0" y1="0" x2="1" y2="1"><stop stop-color="#fff"/><stop offset=".4" stop-color="#a8a9ad"/><stop offset=".68" stop-color="#fff"/><stop offset="1" stop-color="#73757b"/></linearGradient></defs><rect width="900" height="700" fill="url(#b)"/><path d="M185 155c55 220 165 325 265 325s210-105 265-325" fill="none" stroke="url(#s)" stroke-width="36" stroke-linecap="round"/><g fill="none" stroke="#84868c" stroke-width="7"><path d="M260 260c80 90 300 90 380 0"/><path d="M300 315c70 65 230 65 300 0"/></g><g fill="url(#s)" stroke="#777980" stroke-width="3"><path d="M450 350l78 112-78 125-78-125z"/><circle cx="315" cy="345" r="35"/><circle cx="585" cy="345" r="35"/><circle cx="375" cy="410" r="27"/><circle cx="525" cy="410" r="27"/></g><g fill="#5c0a1a"><circle cx="450" cy="462" r="19"/><circle cx="315" cy="345" r="10"/><circle cx="585" cy="345" r="10"/></g><text x="450" y="645" text-anchor="middle" font-family="Georgia,serif" font-size="26" letter-spacing="8" fill="#5c0a1a">STERLING SILVER</text></svg>
